<svg xmlns="http://www.w3.org/2000/svg" width="94" height="71" viewBox="0 0 94 71">
  <metadata><?xpacket begin="﻿" id="W5M0MpCehiHzreSzNTczkc9d"?>
<x:xmpmeta xmlns:x="adobe:ns:meta/" x:xmptk="Adobe XMP Core 5.6-c138 79.159824, 2016/09/14-01:09:01        ">
   <rdf:RDF xmlns:rdf="http://www.w3.org/1999/02/22-rdf-syntax-ns#">
      <rdf:Description rdf:about=""/>
   </rdf:RDF>
</x:xmpmeta>
                                                                                                    
                                                                                                    
                                                                                                    
                                                                                                    
                                                                                                    
                                                                                                    
                                                                                                    
                                                                                                    
                                                                                                    
                                                                                                    
                                                                                                    
                                                                                                    
                                                                                                    
                                                                                                    
                                                                                                    
                                                                                                    
                                                                                                    
                                                                                                    
                                                                                                    
                                                                                                    
                           
<?xpacket end="w"?></metadata>
<defs>
    <style>
      .cls-1 {
        fill: #9f0088;
        fill-rule: evenodd;
      }
    </style>
  </defs>
  <path class="cls-1" d="M1614.38,5478h-0.01a3.329,3.329,0,0,0-3.35,3.32v49.87a3.355,3.355,0,0,0,3.37,3.32c7.83,0.02,20.95,1.63,30,11v-52.19a3.159,3.159,0,0,0-.46-1.68C1636.5,5479.81,1622.23,5478.02,1614.38,5478Zm68.6,53.19v-49.87a3.329,3.329,0,0,0-3.35-3.32h-0.01c-7.85.02-22.12,1.81-29.55,13.64a3.159,3.159,0,0,0-.46,1.68v52.18c9.05-9.36,22.17-10.97,30-10.99A3.355,3.355,0,0,0,1682.98,5531.19Zm7.66-41.69h-2.44v41.69a8.551,8.551,0,0,1-8.58,8.48c-6.64.02-17.59,1.3-25.35,8.56,13.42-3.25,27.56-1.14,35.61.68a3.408,3.408,0,0,0,2.86-.64,3.308,3.308,0,0,0,1.26-2.6v-52.85A3.346,3.346,0,0,0,1690.64,5489.5Zm-84.84,41.69V5489.5h-2.44a3.346,3.346,0,0,0-3.36,3.32v52.85a3.323,3.323,0,0,0,1.26,2.6,3.408,3.408,0,0,0,2.86.64c8.05-1.82,22.19-3.93,35.61-.68-7.76-7.26-18.71-8.54-25.35-8.56A8.551,8.551,0,0,1,1605.8,5531.19Z" transform="translate(-1600 -5478)"/>
</svg>
