<svg xmlns="http://www.w3.org/2000/svg" width="76" height="76" viewBox="0 0 76 76">
  <metadata><?xpacket begin="﻿" id="W5M0MpCehiHzreSzNTczkc9d"?>
<x:xmpmeta xmlns:x="adobe:ns:meta/" x:xmptk="Adobe XMP Core 5.6-c138 79.159824, 2016/09/14-01:09:01        ">
   <rdf:RDF xmlns:rdf="http://www.w3.org/1999/02/22-rdf-syntax-ns#">
      <rdf:Description rdf:about=""/>
   </rdf:RDF>
</x:xmpmeta>
                                                                                                    
                                                                                                    
                                                                                                    
                                                                                                    
                                                                                                    
                                                                                                    
                                                                                                    
                                                                                                    
                                                                                                    
                                                                                                    
                                                                                                    
                                                                                                    
                                                                                                    
                                                                                                    
                                                                                                    
                                                                                                    
                                                                                                    
                                                                                                    
                                                                                                    
                                                                                                    
                           
<?xpacket end="w"?></metadata>
<defs>
    <style>
      .cls-1 {
        fill: #2c82c9;
        fill-rule: evenodd;
      }
    </style>
  </defs>
  <path id="Forma_1" data-name="Forma 1" class="cls-1" d="M1140,5549.99a37.99,37.99,0,1,1,37.99-37.98A38.028,38.028,0,0,1,1140,5549.99Zm0-73.67a35.68,35.68,0,1,0,35.68,35.69A35.728,35.728,0,0,0,1140,5476.32Zm11.04,50.18a1.146,1.146,0,0,1-.89-0.42l-11.04-13.34a1.171,1.171,0,0,1-.26-0.74v-22.16a1.155,1.155,0,1,1,2.31,0v21.75l10.77,13.02a1.158,1.158,0,0,1-.15,1.63A1.135,1.135,0,0,1,1151.04,5526.5Z" transform="translate(-1102 -5474)"/>
</svg>
